<mxfile host="Electron" modified="2024-02-09T08:21:25.863Z" agent="Mozilla/5.0 (Windows NT 10.0; Win64; x64) AppleWebKit/537.36 (KHTML, like Gecko) draw.io/22.1.18 Chrome/120.0.6099.199 Electron/28.1.2 Safari/537.36" etag="EmMVbjItq_QQis1piiTD" version="22.1.18" type="device">
  <diagram name="第 1 页" id="EAXgl-Dl5k-QQ_K-VylO">
    <mxGraphModel dx="1221" dy="717" grid="0" gridSize="10" guides="1" tooltips="1" connect="1" arrows="1" fold="1" page="1" pageScale="1" pageWidth="3300" pageHeight="4681" math="0" shadow="0">
      <root>
        <mxCell id="0" />
        <mxCell id="1" parent="0" />
        <mxCell id="URq8qEWByPaut0PpRk7o-33" value="递归查询&lt;br&gt;权限分配&lt;br&gt;responsdata&lt;br&gt;&lt;br&gt;将文件夹和文件路径一律视为matedata" style="rounded=0;whiteSpace=wrap;html=1;" vertex="1" parent="1">
          <mxGeometry x="290" y="181" width="264" height="343" as="geometry" />
        </mxCell>
        <mxCell id="URq8qEWByPaut0PpRk7o-34" value="1.文件权限：按照目录权限即可&lt;br&gt;2.实际文件地址：按照md5前10 + 日期 + part" style="rounded=0;whiteSpace=wrap;html=1;" vertex="1" parent="1">
          <mxGeometry x="648" y="225" width="329" height="341" as="geometry" />
        </mxCell>
      </root>
    </mxGraphModel>
  </diagram>
</mxfile>
